<svg width="1197" height="185" viewBox="0 0 1197 185" fill="none" xmlns="http://www.w3.org/2000/svg">
<path d="M34.56 158.496C27.4773 158.496 21.4613 152.992 16.512 141.984C14.8053 138.059 13.312 133.749 12.032 129.056C10.752 124.363 9.64267 119.584 8.704 114.72C7.85067 109.856 7.12533 105.205 6.528 100.768C6.016 96.2453 5.58933 92.2773 5.248 88.864C4.992 85.3653 4.77867 82.72 4.608 80.928L25.6 76.064C26.624 95.4347 28.16 110.155 30.208 120.224C32.3413 130.293 33.9627 135.328 35.072 135.328C35.6693 135.328 36.3947 134.133 37.248 131.744C38.1867 129.355 39.2107 126.197 40.32 122.272C41.4293 118.261 42.496 113.867 43.52 109.088C44.544 104.309 45.44 99.488 46.208 94.624C45.184 88.3947 44.5013 83.4453 44.16 79.776L65.792 79.008V80.544C65.792 84.0427 66.048 88.1387 66.56 92.832C67.072 97.5253 67.712 102.389 68.48 107.424C69.248 112.373 70.0587 116.981 70.912 121.248C71.8507 125.515 72.7467 128.971 73.6 131.616C74.4533 134.261 75.1787 135.584 75.776 135.584C76.288 135.584 77.0133 134.432 77.952 132.128C78.8907 129.824 79.9147 126.667 81.024 122.656C82.2187 118.645 83.4133 114.08 84.608 108.96C85.8027 103.755 86.9547 98.2933 88.064 92.576C89.1733 86.7733 90.0693 81.0133 90.752 75.296L111.872 79.776C110.421 87.8827 108.672 95.9467 106.624 103.968C104.661 111.904 102.571 119.285 100.352 126.112C98.1333 132.853 95.9573 138.528 93.824 143.136C89.0453 153.291 83.1147 158.368 76.032 158.368C73.728 158.368 71.0827 157.643 68.096 156.192C65.1947 154.827 62.5067 151.925 60.032 147.488C59.1787 145.867 58.3253 143.904 57.472 141.6C56.6187 139.296 55.808 136.736 55.04 133.92C54.016 137.077 52.992 139.893 51.968 142.368C47.4453 153.12 41.6427 158.496 34.56 158.496ZM122.135 65.312C122.135 64.544 122.092 63.776 122.007 63.008C122.007 62.1547 122.007 61.216 122.007 60.192C122.007 57.4613 122.092 54.56 122.263 51.488C122.434 48.416 122.604 45.8133 122.775 43.68L145.559 44.064C145.303 46.9653 145.004 50.2507 144.663 53.92C144.407 57.5893 144.236 61.3867 144.151 65.312H122.135ZM121.623 156.96C121.367 151.669 121.196 146.037 121.111 140.064C121.026 134.005 120.983 127.947 120.983 121.888C120.983 113.952 121.068 106.229 121.239 98.72C121.41 91.2107 121.623 84.384 121.879 78.24L143.895 78.112C143.554 82.0373 143.34 86.9013 143.255 92.704C143.17 98.4213 143.127 104.437 143.127 110.752C143.127 116.981 143.17 123.125 143.255 129.184C143.34 135.243 143.426 140.747 143.511 145.696C143.682 150.56 143.81 154.315 143.895 156.96H121.623ZM181.229 158.112C176.536 158.112 172.653 157.088 169.581 155.04C166.594 153.077 164.205 150.347 162.413 146.848C160.706 143.349 159.426 139.339 158.573 134.816C157.805 130.293 157.293 125.472 157.037 120.352C156.866 115.147 156.781 109.941 156.781 104.736C156.781 100.213 156.909 95.264 157.165 89.888C157.421 84.4267 157.72 78.9227 158.061 73.376C158.488 67.744 158.914 62.4533 159.341 57.504C159.853 52.5547 160.322 48.2453 160.749 44.576L183.917 44.832C183.234 49.184 182.594 54.1333 181.997 59.68C181.4 65.1413 180.888 70.688 180.461 76.32C180.12 81.952 179.821 87.1573 179.565 91.936C179.394 96.7147 179.309 100.512 179.309 103.328C179.309 111.093 179.437 117.195 179.693 121.632C180.034 126.069 180.504 129.227 181.101 131.104C181.784 132.896 182.68 133.792 183.789 133.792C185.24 133.792 186.818 132.896 188.525 131.104C190.232 129.227 191.896 127.136 193.517 124.832L204.397 146.464C201.752 149.365 198.594 152.011 194.925 154.4C191.256 156.875 186.69 158.112 181.229 158.112ZM247.65 158.112C243.213 158.112 238.861 157.344 234.594 155.808C230.413 154.272 226.615 151.883 223.202 148.64C219.874 145.483 217.229 141.515 215.266 136.736C213.303 131.872 212.322 126.197 212.322 119.712C212.322 112.373 213.431 106.059 215.65 100.768C217.954 95.392 220.983 90.9973 224.738 87.584C228.493 84.0853 232.674 81.4827 237.282 79.776C241.89 78.0693 246.498 77.216 251.106 77.216C253.837 77.216 256.439 77.4293 258.914 77.856C261.389 78.1973 263.693 78.7093 265.826 79.392C266.082 73.1627 266.381 66.8907 266.722 60.576C267.149 54.2613 267.618 48.032 268.13 41.888L289.634 43.296C288.951 50.3787 288.354 58.016 287.842 66.208C287.33 74.3147 286.946 82.592 286.69 91.04C286.519 99.488 286.434 107.723 286.434 115.744C286.434 123.253 286.519 130.421 286.69 137.248C286.946 143.989 287.245 150.133 287.586 155.68L265.442 157.344C265.357 155.723 265.314 154.144 265.314 152.608C262.839 154.229 260.109 155.552 257.122 156.576C254.221 157.6 251.063 158.112 247.65 158.112ZM232.93 118.56C232.93 122.997 233.783 126.496 235.49 129.056C237.197 131.531 239.287 133.28 241.762 134.304C244.237 135.328 246.626 135.84 248.93 135.84C251.661 135.84 254.391 135.243 257.122 134.048C259.853 132.853 262.413 130.763 264.802 127.776C264.802 126.752 264.802 125.771 264.802 124.832C264.802 117.92 264.887 110.837 265.058 103.584C261.047 100.085 256.695 98.336 252.002 98.336C250.039 98.336 247.949 98.6347 245.73 99.232C243.511 99.8293 241.421 100.896 239.458 102.432C237.581 103.883 236.002 105.931 234.722 108.576C233.527 111.136 232.93 114.464 232.93 118.56ZM365.88 157.984C362.381 157.984 359.352 156.96 356.792 154.912C354.232 152.864 352.013 150.347 350.136 147.36C348.259 144.373 346.595 141.472 345.144 138.656C342.499 133.28 339.981 127.392 337.592 120.992C335.203 114.592 333.112 107.936 331.32 101.024C329.528 94.112 328.163 87.2853 327.224 80.544L350.392 77.216C351.075 85.152 352.141 92.6187 353.592 99.616C355.043 106.613 356.749 112.843 358.712 118.304C360.675 123.765 362.68 128.203 364.728 131.616C365.155 132.213 365.539 132.811 365.88 133.408C366.307 134.005 366.52 134.304 366.52 134.304C366.691 134.304 367.373 133.408 368.568 131.616C372.323 125.045 375.821 117.365 379.064 108.576C382.307 99.7867 385.123 89.1627 387.512 76.704L410.04 81.184C407.821 89.2053 405.773 96.2027 403.896 102.176C402.019 108.064 400.184 113.227 398.392 117.664C396.6 122.101 394.808 126.112 393.016 129.696C391.224 133.195 389.347 136.608 387.384 139.936C386.104 142.24 384.44 144.8 382.392 147.616C380.429 150.432 378.083 152.864 375.352 154.912C372.621 156.96 369.464 157.984 365.88 157.984ZM452.522 158.112C446.122 158.112 440.319 156.448 435.114 153.12C429.909 149.877 425.77 145.483 422.698 139.936C419.711 134.304 418.218 128.032 418.218 121.12C418.218 114.635 419.413 108.789 421.802 103.584C424.191 98.2933 427.434 93.7707 431.53 90.016C435.711 86.2613 440.447 83.4027 445.738 81.44C451.029 79.392 456.575 78.368 462.378 78.368C467.242 78.368 472.021 79.0507 476.714 80.416C477.055 78.624 477.354 76.832 477.61 75.04L499.498 78.752C498.901 80.3733 498.303 82.8053 497.706 86.048C497.109 89.2907 496.597 92.9173 496.17 96.928C495.829 100.939 495.53 104.949 495.274 108.96C495.018 112.971 494.89 116.597 494.89 119.84C494.89 122.485 495.061 125.088 495.402 127.648C495.829 130.123 496.682 132.171 497.962 133.792C499.242 135.328 501.205 136.096 503.85 136.096H505.642L502.442 158.368C496.81 158.368 492.159 157.387 488.49 155.424C484.821 153.547 481.877 150.987 479.658 147.744C475.989 151.84 471.807 154.571 467.114 155.936C462.421 157.387 457.557 158.112 452.522 158.112ZM439.21 123.68C439.637 127.776 441.301 131.061 444.202 133.536C447.189 135.925 450.943 137.12 455.466 137.12C459.818 137.12 463.445 135.968 466.346 133.664C469.247 131.275 471.637 128.032 473.514 123.936C473.429 122.571 473.386 121.163 473.386 119.712C473.386 116.725 473.471 113.653 473.642 110.496C473.813 107.339 474.026 104.224 474.282 101.152C470.698 99.7867 466.943 99.104 463.018 99.104C458.41 99.104 454.271 100.043 450.602 101.92C447.018 103.712 444.202 106.229 442.154 109.472C440.106 112.715 439.082 116.469 439.082 120.736C439.082 121.248 439.082 121.76 439.082 122.272C439.082 122.784 439.125 123.253 439.21 123.68ZM513.132 157.984C513.473 150.901 513.729 143.819 513.9 136.736C514.071 129.653 514.156 122.656 514.156 115.744C514.071 109.429 513.943 103.2 513.772 97.056C513.687 90.8267 513.473 84.8107 513.132 79.008L534.636 78.368C534.721 81.5253 534.849 84.768 535.02 88.096C537.751 84.6827 540.908 81.952 544.492 79.904C548.161 77.7707 552.343 76.704 557.036 76.704C558.828 76.704 561.132 76.96 563.948 77.472C566.764 77.984 569.623 78.9653 572.524 80.416L570.092 102.048C567.959 100.768 565.655 99.872 563.18 99.36C560.791 98.7627 558.785 98.464 557.164 98.464C551.703 98.464 547.052 100.939 543.212 105.888C539.457 110.752 536.897 117.536 535.532 126.24C535.532 132.213 535.447 137.931 535.276 143.392C535.191 148.768 534.977 153.632 534.636 157.984H513.132ZM577.385 65.312C577.385 64.544 577.342 63.776 577.257 63.008C577.257 62.1547 577.257 61.216 577.257 60.192C577.257 57.4613 577.342 54.56 577.513 51.488C577.684 48.416 577.854 45.8133 578.025 43.68L600.809 44.064C600.553 46.9653 600.254 50.2507 599.913 53.92C599.657 57.5893 599.486 61.3867 599.401 65.312H577.385ZM576.873 156.96C576.617 151.669 576.446 146.037 576.361 140.064C576.276 134.005 576.233 127.947 576.233 121.888C576.233 113.952 576.318 106.229 576.489 98.72C576.66 91.2107 576.873 84.384 577.129 78.24L599.145 78.112C598.804 82.0373 598.59 86.9013 598.505 92.704C598.42 98.4213 598.377 104.437 598.377 110.752C598.377 116.981 598.42 123.125 598.505 129.184C598.59 135.243 598.676 140.747 598.761 145.696C598.932 150.56 599.06 154.315 599.145 156.96H576.873ZM643.647 158.112C637.247 158.112 631.444 156.448 626.239 153.12C621.034 149.877 616.895 145.483 613.823 139.936C610.836 134.304 609.343 128.032 609.343 121.12C609.343 114.635 610.538 108.789 612.927 103.584C615.316 98.2933 618.559 93.7707 622.655 90.016C626.836 86.2613 631.572 83.4027 636.863 81.44C642.154 79.392 647.7 78.368 653.503 78.368C658.367 78.368 663.146 79.0507 667.839 80.416C668.18 78.624 668.479 76.832 668.735 75.04L690.623 78.752C690.026 80.3733 689.428 82.8053 688.831 86.048C688.234 89.2907 687.722 92.9173 687.295 96.928C686.954 100.939 686.655 104.949 686.399 108.96C686.143 112.971 686.015 116.597 686.015 119.84C686.015 122.485 686.186 125.088 686.527 127.648C686.954 130.123 687.807 132.171 689.087 133.792C690.367 135.328 692.33 136.096 694.975 136.096H696.767L693.567 158.368C687.935 158.368 683.284 157.387 679.615 155.424C675.946 153.547 673.002 150.987 670.783 147.744C667.114 151.84 662.932 154.571 658.239 155.936C653.546 157.387 648.682 158.112 643.647 158.112ZM630.335 123.68C630.762 127.776 632.426 131.061 635.327 133.536C638.314 135.925 642.068 137.12 646.591 137.12C650.943 137.12 654.57 135.968 657.471 133.664C660.372 131.275 662.762 128.032 664.639 123.936C664.554 122.571 664.511 121.163 664.511 119.712C664.511 116.725 664.596 113.653 664.767 110.496C664.938 107.339 665.151 104.224 665.407 101.152C661.823 99.7867 658.068 99.104 654.143 99.104C649.535 99.104 645.396 100.043 641.727 101.92C638.143 103.712 635.327 106.229 633.279 109.472C631.231 112.715 630.207 116.469 630.207 120.736C630.207 121.248 630.207 121.76 630.207 122.272C630.207 122.784 630.25 123.253 630.335 123.68ZM705.921 157.216C705.921 150.219 706.049 142.709 706.305 134.688C706.561 126.667 706.902 118.517 707.329 110.24C707.756 101.963 708.182 93.856 708.609 85.92C709.121 77.984 709.633 70.5173 710.145 63.52C710.657 56.4373 711.084 50.1653 711.425 44.704L732.801 44.96C732.289 49.824 731.777 55.2853 731.265 61.344C730.838 67.4027 730.412 73.8453 729.985 80.672C732.46 79.648 735.105 78.88 737.921 78.368C740.822 77.7707 743.937 77.472 747.265 77.472C751.788 77.472 756.097 78.24 760.193 79.776C764.374 81.2267 768.129 83.488 771.457 86.56C774.785 89.632 777.388 93.6 779.265 98.464C781.228 103.328 782.209 109.173 782.209 116C782.209 123.253 781.185 129.525 779.137 134.816C777.089 140.107 774.316 144.459 770.817 147.872C767.318 151.285 763.35 153.803 758.913 155.424C754.561 157.131 750.081 157.984 745.473 157.984C741.974 157.984 738.689 157.515 735.617 156.576C732.63 155.637 729.857 154.4 727.297 152.864C727.297 154.229 727.297 155.595 727.297 156.96L705.921 157.216ZM744.321 98.976C737.921 98.976 732.716 100.853 728.705 104.608C728.364 112.459 728.065 120.139 727.809 127.648C731.99 133.195 737.836 135.968 745.345 135.968C747.82 135.968 750.294 135.413 752.769 134.304C755.329 133.109 757.462 131.104 759.169 128.288C760.876 125.472 761.729 121.547 761.729 116.512C761.729 110.795 760.236 106.443 757.249 103.456C754.348 100.469 750.038 98.976 744.321 98.976ZM815.854 158.112C811.161 158.112 807.278 157.088 804.206 155.04C801.219 153.077 798.83 150.347 797.038 146.848C795.331 143.349 794.051 139.339 793.198 134.816C792.43 130.293 791.918 125.472 791.662 120.352C791.491 115.147 791.406 109.941 791.406 104.736C791.406 100.213 791.534 95.264 791.79 89.888C792.046 84.4267 792.345 78.9227 792.686 73.376C793.113 67.744 793.539 62.4533 793.966 57.504C794.478 52.5547 794.947 48.2453 795.374 44.576L818.542 44.832C817.859 49.184 817.219 54.1333 816.622 59.68C816.025 65.1413 815.513 70.688 815.086 76.32C814.745 81.952 814.446 87.1573 814.19 91.936C814.019 96.7147 813.934 100.512 813.934 103.328C813.934 111.093 814.062 117.195 814.318 121.632C814.659 126.069 815.129 129.227 815.726 131.104C816.409 132.896 817.305 133.792 818.414 133.792C819.865 133.792 821.443 132.896 823.15 131.104C824.857 129.227 826.521 127.136 828.142 124.832L839.022 146.464C836.377 149.365 833.219 152.011 829.55 154.4C825.881 156.875 821.315 158.112 815.854 158.112ZM888.675 158.24C880.483 158.24 873.272 156.619 867.043 153.376C860.899 150.219 856.078 145.781 852.579 140.064C849.166 134.347 847.459 127.733 847.459 120.224C847.459 115.701 848.227 110.965 849.763 106.016C851.299 100.981 853.774 96.288 857.187 91.936C860.6 87.584 865.08 84.0427 870.627 81.312C876.259 78.5813 883.086 77.216 891.107 77.216C896.91 77.216 901.774 77.856 905.699 79.136C909.71 80.416 912.952 82.08 915.427 84.128C917.987 86.176 919.907 88.352 921.187 90.656C922.552 92.96 923.448 95.1787 923.875 97.312C924.387 99.36 924.643 101.067 924.643 102.432C924.643 110.709 921.144 117.109 914.147 121.632C907.235 126.069 897.422 128.288 884.707 128.288C881.806 128.288 879.032 128.16 876.387 127.904C873.827 127.648 871.438 127.349 869.219 127.008C870.84 131.275 873.528 134.432 877.283 136.48C881.038 138.443 884.92 139.424 888.931 139.424C894.734 139.424 899.854 138.4 904.291 136.352C908.728 134.219 912.91 130.976 916.835 126.624L928.227 143.008C925.496 145.227 922.424 147.531 919.011 149.92C915.683 152.309 911.587 154.272 906.723 155.808C901.859 157.429 895.843 158.24 888.675 158.24ZM891.491 96.416C886.456 96.416 882.019 97.696 878.179 100.256C874.339 102.816 871.523 106.187 869.731 110.368C871.864 110.709 873.955 111.008 876.003 111.264C878.136 111.435 880.227 111.52 882.275 111.52C884.152 111.52 886.286 111.349 888.675 111.008C891.15 110.667 893.539 110.155 895.843 109.472C898.232 108.789 900.195 107.936 901.731 106.912C903.267 105.803 904.035 104.523 904.035 103.072C904.035 102.389 903.694 101.536 903.011 100.512C902.328 99.488 901.091 98.5493 899.299 97.696C897.507 96.8427 894.904 96.416 891.491 96.416ZM975.776 158.624C969.973 158.624 964.597 157.941 959.648 156.576C954.699 155.211 950.219 153.461 946.208 151.328C942.197 149.195 938.613 146.933 935.456 144.544L946.976 125.984C950.56 129.312 954.016 131.872 957.344 133.664C960.672 135.456 964.128 136.693 967.712 137.376C971.381 138.059 975.349 138.4 979.616 138.4C983.285 138.4 986.229 137.931 988.448 136.992C990.667 135.968 991.776 134.688 991.776 133.152C991.776 131.872 990.709 130.891 988.576 130.208C986.443 129.44 983.712 128.8 980.384 128.288C977.056 127.691 973.557 126.965 969.888 126.112C964.683 124.747 959.819 123.168 955.296 121.376C950.773 119.584 947.104 117.152 944.288 114.08C941.557 111.008 940.192 106.912 940.192 101.792C940.192 97.696 941.173 94.112 943.136 91.04C945.099 87.8827 947.701 85.28 950.944 83.232C954.272 81.0987 958.027 79.52 962.208 78.496C966.389 77.472 970.699 76.96 975.136 76.96C982.816 76.96 989.429 77.8987 994.976 79.776C1000.61 81.568 1005.98 83.9573 1011.1 86.944L999.456 104.608C996.896 102.816 993.952 101.28 990.624 100C987.381 98.6347 984.096 97.6107 980.768 96.928C977.525 96.16 974.496 95.776 971.68 95.776C968.608 95.776 966.176 96.2453 964.384 97.184C962.677 98.1227 961.824 99.4453 961.824 101.152C961.824 102.176 962.891 103.157 965.024 104.096C967.243 104.949 971.424 106.101 977.568 107.552C981.237 108.405 985.12 109.301 989.216 110.24C993.312 111.093 997.152 112.331 1000.74 113.952C1004.41 115.488 1007.35 117.749 1009.57 120.736C1011.87 123.637 1013.02 127.52 1013.02 132.384C1013.02 140.576 1009.74 146.976 1003.17 151.584C996.597 156.277 987.467 158.624 975.776 158.624Z" fill="#5AB959"/>
<path d="M1196.43 113.869C1196.4 113.653 1196.36 113.445 1196.32 113.238C1196.3 113.138 1196.29 113.039 1196.26 112.944C1196.25 112.858 1196.23 112.777 1196.21 112.691C1196.16 112.502 1196.11 112.317 1196.06 112.127C1196.04 112.037 1196.01 111.951 1195.98 111.861C1195.94 111.699 1195.89 111.532 1195.84 111.369L1195.61 110.769L1195.34 110.088C1195.14 109.672 1194.91 109.266 1194.69 108.86C1194.61 108.698 1194.52 108.553 1194.43 108.413C1194.38 108.337 1194.34 108.264 1194.28 108.188C1194.2 108.057 1194.12 107.926 1194.03 107.791C1194.02 107.768 1194 107.745 1193.99 107.723C1193.65 107.222 1193.31 106.73 1192.95 106.252C1192.78 106.031 1192.62 105.814 1192.45 105.597C1192.28 105.394 1192.13 105.196 1191.96 105.002C1191.65 104.627 1191.33 104.266 1191 103.909C1189.87 102.7 1188.63 101.603 1187.29 100.651C1184.62 98.7468 1181.59 97.411 1178.55 96.8017L1177.97 96.6799L1177.4 96.5941C1177.03 96.54 1176.62 96.4678 1176.29 96.4317C1175.59 96.3549 1174.9 96.2782 1174.22 96.2015C1174.09 96.188 1173.97 96.1744 1173.84 96.1654H1173.84C1173.5 96.1293 1173.17 96.0977 1172.83 96.0661C1172.41 96.0255 1171.98 95.9849 1171.56 95.9488C1171.38 95.9307 1171.19 95.9172 1171.01 95.9037C1170.89 95.8901 1170.77 95.8811 1170.64 95.8766C1170.61 95.8676 1170.57 95.8676 1170.54 95.8676C1170.43 95.854 1170.33 95.8495 1170.22 95.8405C1170.17 95.836 1170.13 95.836 1170.08 95.8315C1170.05 95.8315 1170.04 95.8269 1170.01 95.8269C1169.93 95.8179 1169.85 95.8134 1169.77 95.8089C1169.75 95.8044 1169.73 95.8044 1169.7 95.8044C1169.6 95.7954 1169.51 95.7863 1169.41 95.7818C1169.38 95.7773 1169.35 95.7773 1169.32 95.7728C1169.3 95.7728 1169.28 95.7728 1169.26 95.7683H1169.21C1169.18 95.7638 1169.15 95.7638 1169.11 95.7593C1168.87 95.7412 1168.63 95.7277 1168.4 95.7141C1167.96 95.6825 1167.52 95.66 1167.09 95.6374C1166.66 95.6103 1166.23 95.5923 1165.81 95.5742C1166.1 95.3892 1166.39 95.1816 1166.67 94.974H1166.68C1166.7 94.9605 1166.72 94.9469 1166.75 94.9244C1167.23 94.5769 1167.71 94.2159 1168.17 93.8277C1169.35 92.871 1170.47 91.806 1171.5 90.6372C1171.8 90.2626 1172.09 89.8925 1172.4 89.518C1172.54 89.3375 1172.69 89.1524 1172.83 88.9719C1173.22 88.3762 1173.61 87.776 1174 87.1758C1174.71 85.9348 1175.39 84.6621 1175.88 83.3128C1176.21 82.4779 1176.49 81.6205 1176.74 80.754H1176.74C1177.7 77.3423 1178.02 73.7185 1177.65 70.1172C1177.51 68.7679 1177.27 67.423 1176.93 66.0917C1176.78 65.4329 1176.53 64.8327 1176.34 64.3317C1176.15 63.8308 1175.98 63.4427 1175.88 63.2441C1175.67 62.847 1175.74 63.208 1176.25 64.9906C1176.31 65.1666 1176.37 65.3426 1176.43 65.5051C1176.48 65.6811 1176.52 65.8526 1176.57 66.015C1176.66 66.3535 1176.74 66.6784 1176.82 66.9898C1176.89 67.3012 1176.97 67.599 1177.04 67.8833C1177.08 68.1722 1177.12 68.4475 1177.16 68.7047C1177.23 69.2237 1177.29 69.6795 1177.32 70.0676V70.0946C1177.37 70.4737 1177.34 70.7851 1177.34 71.0153C1177.32 71.4936 1177.27 71.6471 1177.19 71.4214C1177.16 71.3041 1177.11 71.0965 1177.06 70.7806C1177.03 70.582 1176.98 70.3474 1176.93 70.0631C1176.89 69.9006 1176.86 69.7201 1176.81 69.5215C1176.67 68.7408 1176.61 68.1631 1176.51 67.7525C1176.41 67.3328 1176.35 67.0665 1176.32 66.8905C1176.27 66.5475 1176.32 66.5836 1176.36 66.5972C1176.4 66.5972 1176.43 66.5746 1176.31 66.1008C1176.26 65.8571 1176.17 65.5051 1175.98 64.9996C1175.89 64.7469 1175.78 64.4581 1175.65 64.1151C1175.52 63.7812 1175.4 63.3885 1175.18 62.9688C1175.3 63.2486 1175.39 63.5375 1175.47 63.8263L1175.72 64.6882L1175.97 65.5547C1176.04 65.848 1176.09 66.1369 1176.15 66.4347C1175.24 62.8921 1173.89 60.4191 1172.51 58.474C1172.15 58.0002 1171.82 57.5309 1171.46 57.1021C1171.07 56.7005 1170.69 56.3079 1170.32 55.9198C1169.59 55.1481 1168.76 54.4892 1167.88 53.8754C1166.71 52.8736 1165.43 51.9755 1164.01 51.2806C1162.6 50.5856 1161.05 50.0621 1159.43 49.859C1157.8 49.6604 1156.08 49.7868 1154.49 50.2877C1152.9 50.7932 1151.44 51.6145 1150.18 52.6028C1147.65 54.602 1145.8 57.1202 1144.18 59.6293C1143.78 60.2656 1143.35 60.8794 1142.98 61.5292L1141.85 63.4698C1141.14 64.7875 1140.43 66.1008 1139.8 67.4501C1137.97 71.268 1136.53 75.2303 1135.43 79.2196C1135.39 78.6781 1135.32 78.0373 1135.22 77.2972C1135.28 77.9064 1135.35 78.7007 1135.39 79.3686C1135.36 79.4543 1135.35 79.531 1135.33 79.6123C1134.86 73.9531 1133.75 68.2624 1131.5 62.9508C1131.71 63.5465 1131.82 64.1783 1131.98 64.7875C1131.75 64.0971 1131.5 63.3344 1131.15 62.5537C1130.98 62.1565 1130.8 61.7549 1130.62 61.3352C1130.43 60.92 1130.21 60.5048 1130 60.0761C1129.1 58.3883 1127.97 56.6328 1126.66 55.0037C1125.33 53.3881 1123.83 51.8808 1122.25 50.6668C1120.68 49.4393 1119.06 48.4826 1117.61 47.7786C1117.58 47.8011 1117.3 47.7425 1116.92 47.6477C1116.73 47.5981 1116.52 47.5304 1116.28 47.4807C1116.05 47.4356 1115.8 47.386 1115.55 47.3408C1114.58 47.1603 1113.67 47.1152 1113.85 47.2461C1112.72 47.052 1111.56 46.9753 1110.4 47.0069C1109.23 47.0701 1108.06 47.228 1106.92 47.5349C1105.78 47.8553 1104.66 48.293 1103.6 48.8887C1102.57 49.4935 1101.59 50.2336 1100.74 51.1136C1099.92 52.0116 1099.2 53.009 1098.65 54.0876C1098.12 55.1751 1097.69 56.3124 1097.45 57.4812C1097.2 58.65 1097.05 59.8324 1097.03 61.0012C1097 61.5834 1097.04 62.1701 1097.04 62.7477C1097.09 63.3254 1097.11 63.903 1097.19 64.4716C1097.43 66.7551 1097.94 68.9574 1098.54 71.0784C1098.85 72.139 1099.19 73.1679 1099.5 74.2013C1099.86 75.2212 1100.21 76.2276 1100.56 77.225C1102.03 81.1782 1103.72 84.8381 1105.47 88.1325C1104.94 86.8328 1105.76 88.1054 1106.13 88.4981C1107.68 90.9846 1107.88 91.269 1107.7 91.1336C1107.52 90.9982 1107 90.416 1107.32 91.0343C1107.52 91.1426 1107.97 91.6525 1108.63 92.4919C1104.71 89.9016 1100.69 87.591 1096.75 85.7768C1094.04 84.5493 1091.41 83.4798 1088.9 82.7306C1087.65 82.3064 1086.41 81.986 1085.22 81.7333C1084.03 81.4761 1082.88 81.3091 1081.78 81.2233C1079.6 81.0338 1077.64 81.2098 1076.09 81.5934C1074.53 81.977 1073.4 82.523 1072.73 82.9698C1073.41 82.6043 1074.13 82.3335 1074.62 82.1801C1075.1 82.0447 1075.34 81.9996 1075.09 82.1259C1074.23 82.3786 1073.4 82.7758 1072.6 83.218C1072.22 83.4662 1071.83 83.7144 1071.46 83.9987C1071.11 84.2921 1070.74 84.5719 1070.42 84.9103C1069.12 86.2191 1068.19 87.8347 1067.52 89.4999C1066.84 91.1697 1066.39 92.9026 1066 94.6265C1065.62 96.3459 1065.28 98.1014 1065.12 99.893C1064.94 101.68 1064.95 103.517 1065.25 105.34C1065.43 106.247 1065.66 107.154 1066 108.016C1066.37 108.878 1066.79 109.722 1067.34 110.48C1068.44 112.006 1069.88 113.247 1071.49 114.149C1073.09 115.061 1074.84 115.683 1076.62 116.035C1080.21 116.749 1083.83 116.442 1087.29 115.963C1090.76 115.453 1094.17 114.889 1097.55 114.361C1099.49 114.05 1101.41 113.738 1103.33 113.427C1103.13 113.612 1102.93 113.802 1102.74 113.991C1102.51 114.136 1102.27 114.28 1102.04 114.433C1099.39 116.135 1096.96 118.161 1094.8 120.458C1096.22 118.901 1097.75 117.475 1099.33 116.243C1097.73 117.182 1096.07 118.621 1094.42 120.413C1093.44 121.483 1092.47 122.674 1091.5 123.969C1092.15 123.188 1092.41 123.058 1091.35 124.61C1089.29 127.2 1088.04 129.61 1087.07 132.043C1086.58 133.266 1086.15 134.484 1085.75 135.779C1085.35 137.07 1084.97 138.424 1084.64 139.936C1084.9 137.982 1085.39 136.068 1085.99 134.191C1085.83 134.349 1085.5 135.165 1085.18 136.316C1084.85 137.463 1084.53 138.947 1084.36 140.427C1084.17 141.903 1084.16 143.361 1084.2 144.426C1084.23 145.495 1084.29 146.177 1084.09 146.127C1084.33 147.143 1084.59 147.779 1084.77 148.158C1084.96 148.533 1085.06 148.65 1085.09 148.618C1085.16 148.555 1084.98 147.887 1084.9 147.273C1084.83 146.849 1084.8 146.466 1084.83 146.348C1084.86 146.524 1084.9 146.7 1084.94 146.876C1085.62 149.801 1087.43 152.567 1090.04 153.966C1090.01 153.971 1090.03 153.998 1090.08 154.043C1089.84 153.962 1089.57 153.849 1089.33 153.727C1088.97 153.555 1088.66 153.402 1088.58 153.411C1088.51 153.42 1088.64 153.614 1089.23 154.065C1089.92 154.521 1090.73 154.9 1091.61 155.144C1092.5 155.392 1093.44 155.509 1094.38 155.514C1096.27 155.514 1098.13 155.072 1099.76 154.535C1100.59 154.273 1101.33 153.921 1102.04 153.628C1102.74 153.325 1103.4 153.077 1103.93 152.752C1105.03 152.138 1105.8 151.646 1106.12 151.34C1108.28 150.184 1110.33 148.835 1112.26 147.31C1112.16 147.422 1112.04 147.553 1111.91 147.702C1111.82 147.801 1111.73 147.905 1111.62 148.023C1111.5 148.122 1111.38 148.235 1111.25 148.352C1110.73 148.817 1110.05 149.385 1109.17 150.067C1108.71 150.374 1108.2 150.694 1107.63 151.046C1107.06 151.389 1106.45 151.791 1105.73 152.116C1106.51 151.836 1107.11 151.475 1107.65 151.182C1108.19 150.87 1108.66 150.581 1109.14 150.288C1109.6 149.972 1110.03 149.62 1110.55 149.259C1110.8 149.083 1111.07 148.894 1111.37 148.681C1111.51 148.587 1111.67 148.478 1111.83 148.37C1111.99 148.257 1112.14 148.135 1112.31 148.009L1113.94 146.366C1114.48 145.816 1114.95 145.202 1115.46 144.629C1114.76 145.319 1114.09 146.037 1113.33 146.655L1113.1 146.628C1117.46 143 1121.1 138.5 1123.78 133.491C1123.75 133.821 1123.74 134.159 1123.72 134.484C1123.6 134.674 1123.49 134.868 1123.37 135.062C1122.96 135.752 1122.57 136.452 1122.08 137.097L1120.69 139.065L1119.17 140.937L1120.75 139.173C1121.1 138.681 1121.44 138.171 1121.78 137.67C1122.11 137.16 1122.48 136.673 1122.79 136.149L1123.71 134.565C1123.71 134.565 1123.72 134.552 1123.72 134.543C1123.7 134.999 1123.68 135.45 1123.67 135.897C1123.56 140.17 1123.96 144.151 1124.17 146.976C1124.22 146.299 1124.52 147.061 1124.67 147.152C1124.75 147.197 1124.8 147.075 1124.75 146.529C1124.7 145.983 1124.6 145.004 1124.42 143.334C1124.28 142.824 1124.16 141.966 1124.05 141.285C1123.97 140.608 1123.89 140.103 1123.8 140.306C1123.76 139.579 1123.78 139.074 1123.81 138.69C1123.83 138.311 1123.86 138.054 1123.9 137.828C1123.95 137.377 1124.05 137.038 1124.1 136.086C1124.07 135.4 1124.07 134.669 1124.09 133.897C1124.18 133.739 1124.27 133.581 1124.35 133.419C1124.09 137.332 1124.23 141.271 1124.8 145.157C1125.16 147.63 1125.69 150.112 1126.51 152.477C1127.52 155.446 1128.97 158.235 1131 160.609C1131.37 161.038 1131.76 161.448 1132.18 161.841C1132.11 161.8 1132.07 161.8 1132.06 161.841C1132.81 162.735 1133.96 163.768 1135.38 164.648C1136.78 165.537 1138.46 166.259 1140.13 166.634C1141.81 167.022 1143.45 167.071 1144.75 166.922C1146.06 166.787 1147.01 166.507 1147.43 166.444C1148.09 166.11 1147.45 166.318 1147.09 166.349C1146.91 166.363 1146.81 166.358 1146.98 166.268C1147.07 166.223 1147.22 166.164 1147.46 166.042C1147.5 166.024 1147.55 166.002 1147.59 165.979C1147.81 165.875 1148.12 165.763 1148.47 165.564C1149.15 165.257 1149.69 164.923 1150.17 164.643C1150.62 164.323 1151.04 164.084 1151.35 163.818C1152 163.335 1152.41 162.956 1152.8 162.644C1152.9 162.545 1153.01 162.45 1153.11 162.355C1153.7 161.827 1154.26 161.345 1155.21 160.108C1155.71 159.102 1156.15 158.073 1156.48 157.021C1156.72 156.908 1157.26 155.97 1157.75 154.422C1157.79 154.286 1157.84 154.147 1157.88 154.002C1158.38 152.215 1158.8 149.742 1158.72 147.039C1158.72 146.046 1158.63 145.031 1158.51 144.011C1158.56 144.652 1158.59 145.297 1158.61 145.947C1158.61 147.269 1158.59 148.596 1158.41 149.927C1158.23 151.407 1157.93 152.896 1157.47 154.354C1157.11 155.505 1156.66 156.642 1156.09 157.734C1155.24 159.368 1154.17 160.929 1152.85 162.292C1152.18 162.983 1151.46 163.624 1150.66 164.197C1150.18 164.54 1149.68 164.856 1149.15 165.131C1151.4 163.759 1153.19 161.836 1154.56 159.711C1156.06 157.382 1157.08 154.778 1157.63 152.066C1158.56 147.436 1158.2 142.539 1156.77 137.837C1156.52 137.025 1156.24 136.217 1155.93 135.423C1154.7 132.855 1155.21 134.132 1155.93 136.14C1156.02 136.393 1156.11 136.655 1156.2 136.93C1156.27 137.156 1156.34 137.39 1156.42 137.625C1156.43 137.666 1156.44 137.711 1156.45 137.756C1156.63 138.302 1156.77 138.862 1156.89 139.362C1157.15 140.364 1157.26 141.159 1157.25 141.312C1157.23 141.276 1157.2 141.24 1157.19 141.199C1156.93 139.949 1156.59 138.713 1156.19 137.485C1156.04 137.011 1155.87 136.533 1155.7 136.064C1155.69 136.036 1155.68 136.005 1155.67 135.978C1155.53 135.594 1155.38 135.215 1155.22 134.832H1155.22C1154.55 133.18 1153.77 131.578 1152.9 130.034C1152.9 130.034 1152.9 130.031 1152.9 130.025V130.016C1152.86 129.953 1152.82 129.89 1152.78 129.827C1152.78 129.822 1152.78 129.822 1152.78 129.818C1152.35 129.046 1151.89 128.292 1151.42 127.543H1151.41C1151.29 127.182 1151.3 126.907 1151.24 126.532C1151.17 126.086 1150.98 125.508 1150.28 124.542C1149.55 123.342 1148.78 122.168 1147.97 121.018C1147.97 121.018 1147.97 121.015 1147.97 121.009C1147.75 120.675 1147.51 120.341 1147.27 120.011C1147.11 119.786 1146.95 119.56 1146.79 119.339C1146.78 119.33 1146.78 119.316 1146.77 119.307C1146.73 119.321 1146.66 119.307 1146.58 119.262C1146.51 119.226 1146.43 119.167 1146.32 119.086C1146.3 119.068 1146.27 119.046 1146.24 119.023C1146.07 118.874 1145.85 118.676 1145.6 118.432C1145.45 118.283 1145.29 118.12 1145.12 117.94L1145.02 117.841C1144.93 117.746 1144.84 117.647 1144.73 117.543C1144.71 117.511 1144.67 117.48 1144.64 117.444C1144.59 117.389 1144.54 117.335 1144.49 117.277C1144.44 117.231 1144.4 117.182 1144.35 117.132C1144.29 117.069 1144.23 117.001 1144.17 116.934C1144.23 116.974 1144.3 117.019 1144.37 117.06C1144.42 117.096 1144.48 117.128 1144.53 117.164C1144.59 117.2 1144.65 117.236 1144.71 117.277C1144.72 117.281 1144.73 117.286 1144.74 117.295C1144.76 117.308 1144.79 117.322 1144.81 117.335L1145.05 117.484C1145.08 117.502 1145.11 117.52 1145.13 117.534C1145.35 117.665 1145.57 117.8 1145.79 117.931C1145.81 117.958 1145.84 117.99 1145.86 118.017C1145.87 118.026 1145.88 118.035 1145.89 118.048C1145.93 118.089 1145.96 118.129 1146 118.175C1146.16 118.351 1146.31 118.527 1146.47 118.707C1146.53 118.784 1146.6 118.856 1146.66 118.933C1146.75 119.023 1146.82 119.118 1146.9 119.208C1147.06 119.389 1147.21 119.569 1147.35 119.75C1147.59 120.025 1147.82 120.305 1148.05 120.589C1148.08 120.616 1148.1 120.648 1148.12 120.679C1149.57 122.457 1150.92 124.303 1152.17 126.248C1152.17 126.253 1152.17 126.257 1152.17 126.262C1152.58 127.092 1153.1 128.143 1153.29 128.559C1153.76 129.579 1154.32 130.802 1155.1 132.494C1155.26 132.724 1155.42 132.945 1155.39 132.774C1155.68 133.482 1155.98 134.245 1156.28 135.057C1156.28 135.066 1156.29 135.075 1156.29 135.084C1156.35 135.247 1156.41 135.414 1156.47 135.581C1156.75 136.388 1157.03 137.246 1157.29 138.13C1157.35 138.352 1157.42 138.573 1157.47 138.803C1157.85 140.121 1158.13 141.511 1158.37 142.896C1158.42 143.243 1158.46 143.591 1158.5 143.943C1158.45 143.302 1158.38 142.666 1158.29 142.034C1158.1 140.757 1157.84 139.502 1157.52 138.266C1157.42 137.873 1157.31 137.481 1157.2 137.092C1156.94 136.24 1156.66 135.4 1156.35 134.574C1156.19 134.128 1156.01 133.685 1155.83 133.248C1155.04 131.339 1154.12 129.493 1153.08 127.742C1152.98 127.579 1152.66 127.002 1152.35 126.442C1152.26 126.235 1152.17 126.036 1152.07 125.828C1151.37 124.353 1150.53 122.696 1148.41 120.011C1148.35 119.93 1148.28 119.849 1148.21 119.768C1148.02 119.519 1147.81 119.262 1147.59 118.996C1147.82 119.131 1148.06 119.267 1148.3 119.402C1148.4 119.461 1148.5 119.515 1148.6 119.569C1149.18 119.899 1149.77 120.228 1150.37 120.557C1150.95 120.882 1151.55 121.198 1152.14 121.514C1153.61 122.29 1155.1 123.03 1156.54 123.712C1156.76 123.816 1156.98 123.919 1157.2 124.023C1157.56 124.19 1157.92 124.357 1158.27 124.515V124.52C1159.51 125.084 1160.7 125.598 1161.76 126.036C1161.55 125.878 1161.6 125.806 1161.72 125.779C1162 125.905 1162.28 126.027 1162.54 126.14C1162.64 126.185 1162.74 126.226 1162.83 126.266C1163.55 126.578 1164.19 126.848 1164.79 127.078C1165.24 127.259 1165.66 127.426 1166.08 127.593C1166.5 127.746 1166.91 127.9 1167.33 128.049C1167.74 128.198 1168.16 128.351 1168.6 128.509C1169.04 128.662 1169.5 128.816 1169.99 128.983C1170.98 129.33 1172.13 129.651 1173.53 130.075C1175.25 130.504 1177.08 130.878 1179.02 131.041C1180.1 131.131 1181.2 131.154 1182.34 131.086C1183.63 131.009 1184.97 130.811 1186.28 130.418C1186.3 130.418 1186.31 130.413 1186.32 130.409C1186.61 130.323 1186.91 130.228 1187.2 130.12C1187.28 130.089 1187.37 130.057 1187.46 130.021C1187.65 129.949 1187.84 129.872 1188.03 129.786C1188.28 129.678 1188.53 129.561 1188.78 129.43C1189.83 128.897 1190.83 128.211 1191.72 127.408C1191.85 127.286 1191.99 127.16 1192.12 127.029C1192.23 126.921 1192.34 126.812 1192.44 126.699C1192.54 126.605 1192.63 126.505 1192.72 126.406C1193.14 125.932 1193.54 125.427 1193.9 124.899C1194.41 124.136 1194.85 123.333 1195.22 122.489C1195.84 121.085 1196.25 119.587 1196.45 118.062C1196.63 116.681 1196.62 115.264 1196.43 113.869ZM1096.1 155.194C1095.62 155.234 1094.85 155.279 1094.02 155.234C1093.2 155.189 1092.31 155.031 1091.59 154.787C1090.87 154.539 1090.33 154.25 1090.12 154.083C1090.11 154.07 1090.1 154.056 1090.09 154.047C1090.2 154.088 1090.3 154.119 1090.39 154.151C1090.4 154.156 1090.41 154.16 1090.43 154.16C1090.3 154.101 1090.18 154.038 1090.05 153.966C1090.11 153.966 1090.29 154.02 1090.61 154.124C1090.8 154.237 1090.69 154.228 1090.43 154.165C1090.61 154.241 1090.78 154.318 1090.96 154.386C1093.52 155.379 1096.36 155.027 1099.04 154.25C1098.08 154.629 1097.25 154.945 1096.1 155.194ZM1104.35 112.719C1103.09 113.039 1101.63 113.368 1098.16 113.662C1100.23 113.341 1102.3 113.025 1104.37 112.701C1104.4 112.696 1104.43 112.691 1104.46 112.687C1104.42 112.696 1104.38 112.71 1104.35 112.719ZM1166.02 97.79C1166.29 97.7855 1166.55 97.7855 1166.82 97.7855H1166.99C1167.17 97.7855 1167.34 97.7855 1167.52 97.79C1167.58 97.79 1167.65 97.79 1167.72 97.7945C1168.02 97.7945 1168.31 97.7991 1168.61 97.8081C1168.61 97.8036 1168.62 97.8036 1168.62 97.8081C1168.63 97.8036 1168.64 97.8081 1168.65 97.8081C1168.72 97.8081 1168.8 97.8081 1168.87 97.8126H1168.92C1168.96 97.8126 1168.98 97.8126 1169.01 97.8171H1169.14C1169.21 97.8216 1169.28 97.8216 1169.35 97.8261C1169.38 97.8261 1169.41 97.8261 1169.44 97.8306C1169.62 97.8306 1169.8 97.8442 1169.98 97.8532H1170.04C1170.04 97.8532 1170.07 97.8532 1170.08 97.8577C1170.18 97.8622 1170.28 97.8668 1170.37 97.8713C1170.43 97.8758 1170.5 97.8758 1170.56 97.8848C1170.61 97.8848 1170.66 97.8848 1170.72 97.8938C1170.84 97.8938 1170.96 97.9029 1171.09 97.9164H1171.09C1171.7 97.948 1172.31 97.9931 1172.9 98.0473C1173.09 98.0653 1173.29 98.0834 1173.49 98.1059C1173.51 98.1014 1173.54 98.1059 1173.56 98.1104C1173.57 98.1104 1173.58 98.1104 1173.58 98.115C1173.65 98.115 1173.71 98.124 1173.77 98.133C1174.71 98.2323 1175.62 98.3632 1176.47 98.5121C1177.02 98.6339 1177.56 98.7332 1178.06 98.9047C1178.3 98.9905 1178.55 99.0717 1178.78 99.1484C1178.97 99.2206 1179.16 99.3109 1179.34 99.3921C1180.28 99.6403 1181.2 99.9562 1182.08 100.331C1181.22 99.9697 1180.33 99.6719 1179.44 99.4372C1179.41 99.4192 1179.38 99.4056 1179.34 99.3921C1178.34 99.1258 1177.31 98.9363 1176.24 98.819C1174.13 98.5888 1172.09 98.4263 1170.13 98.3226C1169.65 98.2955 1169.17 98.2684 1168.7 98.2549C1167.88 98.2233 1167.06 98.1962 1166.25 98.1872C1164.48 98.1511 1162.73 98.1691 1160.99 98.2278C1161.21 98.1285 1161.43 98.0247 1161.65 97.9254C1161.72 97.9209 1161.79 97.9164 1161.86 97.9164C1161.87 97.9119 1161.89 97.9119 1161.9 97.9119H1161.95C1161.95 97.9119 1161.97 97.9074 1161.98 97.9074H1162.03C1162.1 97.9029 1162.17 97.8983 1162.24 97.8938H1162.26C1162.32 97.8938 1162.37 97.8893 1162.43 97.8848C1162.49 97.8848 1162.54 97.8848 1162.6 97.8803C1162.75 97.8713 1162.9 97.8668 1163.06 97.8622H1163.07C1163.13 97.8577 1163.18 97.8577 1163.24 97.8532H1163.3C1163.36 97.8532 1163.41 97.8532 1163.46 97.8442C1163.87 97.8306 1164.29 97.8216 1164.7 97.8126H1164.72C1164.78 97.8081 1164.84 97.8081 1164.89 97.8081C1165.11 97.8036 1165.33 97.7991 1165.55 97.7991C1165.57 97.7945 1165.58 97.7945 1165.59 97.7991C1165.59 97.7991 1165.6 97.7991 1165.6 97.7945C1165.74 97.7945 1165.88 97.79 1166.02 97.79ZM1161.23 95.2809C1161.26 95.2628 1161.35 95.2403 1161.49 95.2222H1161.5C1161.87 95.1726 1162.59 95.1274 1163.38 95.0823C1163.99 95.0507 1164.63 95.0372 1165.2 95.0237C1164.96 95.1951 1164.71 95.3576 1164.47 95.5201C1163.94 95.4975 1163.42 95.4795 1162.91 95.4704C1162.88 95.4659 1162.86 95.4659 1162.83 95.4659C1161.95 95.4208 1161.48 95.3802 1161.3 95.335H1161.29C1161.26 95.326 1161.23 95.3215 1161.23 95.308C1161.21 95.3035 1161.21 95.2899 1161.23 95.2809ZM1168.1 55.0082C1168.36 55.2248 1168.77 55.5948 1169.28 56.1093C1169.52 56.3756 1169.79 56.6824 1170.08 57.0119C1170.12 57.066 1170.17 57.1157 1170.22 57.1653L1169.74 56.6779L1169.19 56.1228L1169.08 56.0236H1169.08C1168.79 55.7393 1168.53 55.4504 1168.23 55.1887C1168.1 55.0578 1167.96 54.9315 1167.82 54.8096C1167.81 54.8051 1167.8 54.8006 1167.8 54.7961C1167.75 54.7329 1167.86 54.8096 1168.1 55.0082ZM1152.27 52.2689C1152.33 52.2283 1152.39 52.1967 1152.45 52.1606H1152.45C1152.84 51.9439 1153.23 51.7499 1153.63 51.5829C1153.37 51.6957 1153.14 51.8131 1152.94 51.9259C1152.45 52.1831 1152.07 52.4133 1151.8 52.5938C1151.95 52.481 1152.11 52.3772 1152.27 52.2689ZM1148.42 56.2582C1149.77 54.7329 1151.37 53.2527 1153.36 52.2598C1154.35 51.7679 1155.42 51.4069 1156.55 51.2535C1157.67 51.091 1158.83 51.1226 1159.96 51.3212C1162.23 51.7183 1164.37 52.7653 1166.24 54.1237C1167.16 54.8096 1168.04 55.5678 1168.83 56.4026C1169.56 57.2736 1170.36 58.104 1170.96 59.0562C1171.64 59.9633 1172.13 60.9606 1172.68 61.9174C1173.1 62.9282 1173.6 63.8895 1173.9 64.9094C1174.52 66.6333 1174.86 68.3798 1175.08 70.0405C1175.12 70.2977 1175.16 70.555 1175.18 70.8077C1175.23 71.7554 1175.35 72.676 1175.3 73.565C1175.3 74.0073 1175.29 74.4405 1175.29 74.8647C1175.27 75.2889 1175.21 75.6996 1175.17 76.1058C1174.99 77.8929 1174.67 79.4588 1174.31 80.754C1174.03 81.801 1173.72 82.6765 1173.46 83.3534C1173.33 83.7505 1173.18 84.0619 1173.07 84.3237C1172.95 84.5854 1172.86 84.7885 1172.81 84.9284C1172.71 85.1947 1172.72 85.2398 1172.86 85.0457C1172.86 85.0412 1172.87 85.0367 1172.87 85.0322L1172.89 84.9961C1172.89 84.9961 1172.88 85.0141 1172.87 85.0232C1172.89 84.978 1172.92 84.8968 1172.99 84.7704C1173.04 84.6441 1173.13 84.4681 1173.23 84.2605C1173.33 84.0484 1173.46 83.8047 1173.57 83.5023C1173.84 82.7983 1174.21 81.8687 1174.55 80.736C1174.78 79.9733 1174.99 79.1158 1175.16 78.1727C1175.59 75.853 1175.79 73.0325 1175.43 70.036C1175.43 70.027 1175.43 70.0224 1175.43 70.0134C1175.08 67.0079 1174.16 63.8353 1172.61 60.9561L1172.02 59.8821C1171.81 59.5346 1171.56 59.2096 1171.34 58.8667C1171.11 58.5327 1170.88 58.1988 1170.65 57.8603C1170.42 57.5895 1170.19 57.3188 1169.96 57.048L1170.56 57.5624C1170.63 57.6437 1170.7 57.7294 1170.78 57.8152C1170.85 57.9145 1170.92 58.0228 1171 58.1311C1172.27 59.7692 1173.57 62.0843 1174.51 64.8191C1175.07 66.4392 1175.48 68.2128 1175.71 70.036C1175.87 71.2951 1175.94 72.5812 1175.92 73.8629C1175.88 76.2276 1175.53 78.5743 1174.91 80.7179C1174.72 81.4264 1174.49 82.1169 1174.24 82.7713C1173.23 85.4203 1171.92 87.6226 1170.67 89.1073C1170.1 89.897 1169.52 90.4566 1169.09 90.917C1168.87 91.1471 1168.69 91.3367 1168.54 91.4946C1168.74 91.296 1169.01 91.0072 1169.36 90.6462C1169.32 90.8673 1169.05 91.269 1168.65 91.7383C1168.23 92.176 1167.69 92.677 1167.17 93.1553C1166.13 94.0128 1165.15 94.7709 1165.29 94.9289C1164.03 94.9695 1162.84 95.0327 1161.7 95.1094C1164.53 93.575 1167.09 91.648 1169.27 89.1705C1171.41 86.7471 1172.95 83.8769 1173.89 80.8036C1174.96 77.3513 1175.27 73.6463 1174.84 70.045C1174.24 65.0448 1172.21 60.2295 1168.76 56.5516C1165.44 53.0135 1160.55 50.4276 1155.81 51.4566C1151.56 52.3862 1148.41 55.9468 1145.94 59.5436C1146.67 58.4515 1147.49 57.3368 1148.42 56.2582ZM1159.98 98.0112C1159.78 98.1104 1159.58 98.1962 1159.38 98.291H1159.37C1158.46 98.3271 1157.55 98.3812 1156.62 98.4444C1155.89 98.4895 1155.15 98.5482 1154.4 98.6114C1154.16 98.6294 1153.91 98.6475 1153.67 98.67C1153.09 98.7152 1152.52 98.7693 1151.94 98.828C1152.49 98.6881 1153.01 98.5392 1153.55 98.3767H1153.56C1153.56 98.3767 1153.56 98.3812 1153.57 98.3767C1153.64 98.3767 1153.72 98.3722 1153.8 98.3722C1153.98 98.3632 1154.16 98.3541 1154.35 98.3451C1154.4 98.3406 1154.44 98.3406 1154.49 98.3361H1154.5C1155.21 98.3045 1155.95 98.2594 1156.72 98.2097H1156.73C1156.98 98.1962 1157.22 98.1781 1157.47 98.1646C1158.29 98.115 1159.12 98.0608 1159.98 98.0112ZM1142.33 113.978H1142.34C1142.47 114.127 1142.6 114.28 1142.74 114.442C1142.09 114.045 1141.44 113.644 1140.79 113.251C1140.65 113.098 1140.51 112.94 1140.38 112.791C1141.03 113.183 1141.68 113.581 1142.33 113.978ZM1125.44 54.3132C1125.48 54.2726 1125.79 54.5253 1126.53 55.3737C1127.88 57.3639 1128.8 58.826 1129.6 60.2295C1129.79 60.5815 1129.98 60.929 1130.17 61.2765C1130.34 61.633 1130.5 61.9941 1130.66 62.3641C1130.82 62.7387 1130.99 63.1178 1131.14 63.5149C1131.29 63.9165 1131.41 64.3498 1131.54 64.8011C1131.19 64.1873 1130.84 63.5781 1130.44 63.0004C1130.82 63.7631 1131.19 64.8778 1131.66 66.1414C1131.86 66.7912 1132.06 67.4727 1132.27 68.1857C1132.48 68.8942 1132.64 69.6434 1132.83 70.3835C1133.53 73.3755 1133.91 76.4803 1134.17 78.4118C1134.14 78.4344 1134.12 78.4163 1134.08 78.3757C1133.5 72.5271 1132.2 66.8409 1129.65 61.5473C1128.75 59.6925 1127.68 57.8964 1126.43 56.2402C1126.79 56.6057 1126.3 55.7663 1125.87 55.0939C1125.62 54.6968 1125.41 54.3538 1125.44 54.3132ZM1116.52 48.5864C1116.46 48.5503 1116.41 48.5187 1116.37 48.4826C1117.1 48.6631 1118.13 49.0512 1119.24 49.6289C1120.34 50.22 1121.5 51.0098 1122.51 51.8763C1124.2 53.2933 1125.44 54.8954 1125.95 55.6174C1126.12 55.816 1126.27 56.0191 1126.42 56.2312C1126.36 56.168 1126.27 56.0732 1126.17 55.9423C1126.13 55.8746 1126.06 55.7618 1125.95 55.6174C1123.59 52.6525 1120.65 50.202 1117.15 48.8165C1116.94 48.7353 1116.73 48.6586 1116.52 48.5864H1116.52ZM1124.35 133.405C1124.35 133.405 1124.35 133.41 1124.35 133.415C1124.27 133.563 1124.18 133.712 1124.09 133.857C1124.1 133.509 1124.12 133.157 1124.14 132.792V132.778C1124.24 132.575 1124.35 132.39 1124.44 132.182C1124.4 132.589 1124.37 132.995 1124.35 133.405ZM1132.01 109.853C1131.57 109.704 1131.14 109.551 1130.55 109.523C1130.55 109.677 1130.55 109.681 1130.54 109.817C1130.54 109.537 1130.24 109.817 1130.11 109.659C1130.11 109.554 1130.12 109.45 1130.13 109.347C1130.14 109.194 1130 109.185 1129.85 109.176C1129.86 109.074 1129.87 108.97 1129.87 108.865C1129.58 109 1129.33 108.666 1129.01 108.941C1129.02 108.839 1129.03 108.737 1129.05 108.634C1128.88 108.774 1128.65 108.431 1128.47 108.72C1128.47 108.625 1128.48 108.589 1128.49 108.535C1128.47 108.639 1128.43 108.716 1128.33 108.702C1127.91 108.643 1127.74 108.77 1127.74 108.77C1127.31 108.707 1126.51 108.382 1126.55 108.228C1126.45 108.255 1126.38 108.228 1126.33 108.179H1126.32C1126.29 108.156 1126.26 108.129 1126.24 108.102L1121.61 102.826L1122.32 101.215C1122.66 100.43 1123.12 99.7712 1123.71 98.995C1123.87 99.1484 1123.76 99.6313 1123.81 99.9291C1123.84 100.078 1123.9 100.177 1124.02 100.168C1124.13 100.168 1124.32 100.037 1124.62 99.8344C1125.19 99.3695 1126.03 99.0897 1126.81 99.1303C1127.43 99.1529 1128.03 99.356 1128.5 99.6674L1128.89 96.6618C1128.97 96.54 1129.04 96.4587 1129.1 96.4407C1129.72 96.2602 1130.37 96.1925 1130.9 96.6889C1130.96 96.8468 1131.08 97.1627 1131.15 97.3207C1131.29 97.4606 1131.44 97.5779 1131.59 97.6727C1131.67 97.7223 1131.75 97.7675 1131.83 97.8036C1131.88 97.8261 1131.9 97.8442 1131.91 97.8622V97.8758L1131.94 98.4715L1132 99.4237C1132 99.4463 1132 99.4733 1132 99.4959C1132.23 99.5455 1132.49 99.6132 1132.72 99.6719C1133.14 99.7712 1133.56 99.8298 1133.76 99.3018C1133.67 99.2341 1133.58 99.1619 1133.49 99.0988C1133.57 98.9679 1133.74 98.7107 1133.74 98.7107C1133.2 98.1556 1132.35 97.6772 1131.61 97.4245C1131.61 97.4245 1131.66 97.1176 1131.68 96.9642C1131.89 96.9958 1132.09 97.0319 1132.29 97.086C1131.69 96.9461 1131.55 96.4768 1131.33 96.3008C1131.03 95.9623 1130.44 95.854 1129.78 95.9172C1129.1 95.9759 1128.38 96.188 1127.68 96.4046C1127.45 96.4948 1127.33 96.2241 1127.26 96.0797C1126.82 96.3685 1126.41 96.5671 1125.97 96.7746C1125.75 96.8875 1125.53 96.9958 1125.3 97.1221C1125.08 97.2575 1124.85 97.411 1124.61 97.5915C1125.34 96.6528 1126.31 95.9668 1127.32 95.5426C1128.33 95.1184 1129.37 94.9334 1130.41 94.9199C1131.45 94.9108 1132.5 95.0688 1133.55 95.3937C1133.81 95.4704 1134.08 95.5652 1134.35 95.6735C1134.61 95.7728 1134.88 95.8946 1135.15 96.03C1135.41 96.1519 1135.68 96.3008 1135.94 96.4587C1136.17 96.5761 1136.56 96.8559 1136.86 97.1041C1137.13 97.3884 1137.28 97.3884 1137.43 97.3884C1137.57 97.3884 1137.74 97.3884 1137.97 97.7178C1138.2 98.0382 1138.41 98.3767 1138.59 98.7422C1138.67 98.2278 1139.15 98.4444 1139.33 98.8596C1139.8 99.7396 1140.25 100.868 1140.27 102.497C1140.28 102.596 1140.27 102.7 1140.27 102.808C1140.27 102.831 1140.27 102.858 1140.27 102.881C1140.25 103.174 1140.22 103.49 1140.17 103.792C1140.09 104.252 1139.96 104.744 1139.78 105.218C1139.41 106.184 1138.79 107.136 1138.08 107.845C1137.37 108.571 1136.52 109.108 1135.78 109.433C1135.03 109.763 1134.4 109.912 1133.89 109.984C1132.86 110.115 1132.29 109.997 1132.02 109.853H1132.01ZM1138.29 111.523C1138.39 111.581 1138.48 111.64 1138.58 111.699C1138.73 111.848 1138.89 112.015 1139.05 112.177C1138.9 112.087 1138.76 111.992 1138.61 111.906L1138.29 111.523ZM1138.57 111.879C1138.41 111.775 1138.24 111.676 1138.08 111.577C1138 111.487 1137.92 111.405 1137.83 111.315L1137.87 111.265C1137.97 111.32 1138.06 111.374 1138.15 111.432C1138.15 111.432 1138.15 111.434 1138.16 111.437C1138.3 111.59 1138.43 111.735 1138.57 111.879ZM1133.52 163.005C1133.49 162.983 1133.47 162.965 1133.45 162.947C1133.48 162.965 1133.5 162.983 1133.52 163.001V163.005ZM1143.73 166.792C1142.56 166.977 1141.09 166.873 1139.67 166.476C1138.24 166.088 1136.85 165.411 1135.72 164.68C1134.85 164.129 1134.13 163.533 1133.56 163.041C1135.25 164.355 1137.18 165.366 1139.2 165.952C1139.21 165.952 1139.22 165.957 1139.22 165.957C1139.24 165.961 1139.24 165.961 1139.26 165.966C1139.26 165.966 1139.27 165.97 1139.27 165.975C1140.09 166.259 1140.92 166.467 1141.77 166.593C1142.37 166.683 1142.98 166.719 1143.58 166.715H1143.6C1143.73 166.728 1143.78 166.755 1143.73 166.792ZM1145.03 119C1145.08 119.028 1145.12 119.055 1145.17 119.082C1145.19 119.091 1145.21 119.104 1145.22 119.113C1145.45 119.244 1145.67 119.38 1145.89 119.51C1145.89 119.515 1145.9 119.515 1145.9 119.519C1145.94 119.56 1145.97 119.596 1146 119.637C1146.05 119.691 1146.1 119.741 1146.13 119.79C1146.23 119.894 1146.31 119.993 1146.39 120.088C1146.62 120.359 1146.83 120.603 1147.01 120.824C1147.29 121.176 1147.52 121.464 1147.69 121.695C1147.74 121.776 1147.79 121.844 1147.84 121.911C1148.05 122.223 1148.14 122.403 1148.15 122.489C1148.16 122.615 1148 122.548 1147.76 122.403C1147.75 122.399 1147.74 122.385 1147.72 122.376C1146.78 121.189 1145.81 120.02 1144.81 118.874C1144.89 118.915 1144.96 118.955 1145.03 119ZM1144.18 117.949C1144.25 118.039 1144.31 118.116 1144.36 118.188C1144.39 118.224 1144.41 118.26 1144.44 118.292C1144.65 118.581 1144.78 118.775 1144.79 118.842C1144.8 118.856 1144.8 118.861 1144.81 118.87C1144.8 118.865 1144.8 118.861 1144.8 118.861C1144.8 118.861 1144.8 118.847 1144.79 118.842C1144.47 118.472 1144.13 118.102 1143.81 117.732C1143.4 117.272 1142.98 116.812 1142.56 116.356C1142.56 116.351 1142.56 116.351 1142.56 116.351C1142.56 116.351 1142.56 116.348 1142.55 116.342C1142.36 116.139 1142.18 115.927 1141.99 115.724C1142.15 115.792 1142.35 115.882 1142.55 115.981C1142.61 116.04 1142.66 116.099 1142.71 116.157C1142.72 116.166 1142.72 116.18 1142.73 116.189C1143.1 116.618 1143.45 117.028 1143.74 117.389C1143.75 117.403 1143.76 117.412 1143.77 117.425C1143.77 117.43 1143.78 117.439 1143.78 117.444C1143.81 117.475 1143.84 117.507 1143.86 117.538C1143.96 117.665 1144.05 117.782 1144.14 117.895C1144.15 117.913 1144.17 117.931 1144.18 117.949ZM1146.99 119.055C1146.9 118.951 1146.8 118.842 1146.7 118.734C1146.66 118.68 1146.61 118.626 1146.56 118.572C1146.56 118.567 1146.55 118.563 1146.54 118.554C1146.44 118.441 1146.34 118.328 1146.24 118.211C1146.36 118.287 1146.49 118.36 1146.61 118.432C1146.62 118.441 1146.63 118.445 1146.64 118.45C1146.65 118.454 1146.66 118.459 1146.66 118.463C1146.67 118.486 1146.69 118.531 1146.74 118.599C1146.79 118.689 1146.89 118.82 1147.02 119.005C1147.12 119.14 1147.24 119.298 1147.38 119.492C1147.25 119.348 1147.12 119.204 1146.99 119.055ZM1148.19 119.862C1148.22 119.921 1148.21 119.935 1148.18 119.908C1148.09 119.853 1147.8 119.556 1147.51 119.244L1147.49 119.231C1147.36 119.091 1147.22 118.951 1147.1 118.829C1146.99 118.716 1146.89 118.617 1146.81 118.549C1146.92 118.612 1147.02 118.676 1147.14 118.739C1147.26 118.815 1147.39 118.888 1147.53 118.964C1147.54 118.978 1147.55 118.987 1147.56 119C1147.94 119.492 1148.13 119.759 1148.19 119.862ZM1194.21 118.748C1194.21 118.788 1194.19 118.824 1194.18 118.865C1194.16 119.009 1194.13 119.149 1194.09 119.294C1194.08 119.366 1194.06 119.443 1194.04 119.515C1194 119.659 1193.96 119.804 1193.92 119.948C1193.8 120.39 1193.64 120.824 1193.47 121.252C1193.42 121.383 1193.36 121.514 1193.31 121.645C1193.28 121.708 1193.25 121.771 1193.22 121.835C1193.14 122.02 1193.05 122.205 1192.95 122.385C1192.67 122.967 1192.33 123.527 1191.95 124.059C1191.89 124.154 1191.82 124.244 1191.75 124.339C1191.63 124.502 1191.5 124.66 1191.38 124.813C1191.35 124.849 1191.32 124.881 1191.29 124.912C1191.19 125.03 1191.09 125.147 1190.98 125.26C1190.69 125.589 1190.37 125.892 1190.04 126.18C1189.26 126.83 1188.42 127.408 1187.49 127.841C1187.25 127.958 1186.99 128.067 1186.74 128.171C1186.66 128.198 1186.59 128.229 1186.52 128.252C1186.44 128.283 1186.36 128.315 1186.28 128.342C1186.01 128.441 1185.73 128.532 1185.45 128.608C1185.4 128.626 1185.34 128.644 1185.28 128.658L1185.04 128.726C1184.9 128.762 1184.76 128.793 1184.63 128.825C1183.13 129.154 1181.59 129.276 1180.06 129.24C1179.94 129.236 1179.83 129.231 1179.71 129.227C1179.34 129.213 1178.98 129.19 1178.61 129.159L1178.44 129.141C1176.49 128.969 1174.58 128.599 1172.72 128.125L1171.27 127.773L1169.85 127.358C1168.89 127.101 1167.96 126.781 1167.02 126.478C1165.46 125.955 1163.92 125.377 1162.41 124.759H1162.4C1161.14 124.24 1159.9 123.698 1158.68 123.134C1158.67 123.13 1158.66 123.125 1158.65 123.121C1158.58 123.085 1158.51 123.053 1158.43 123.021C1157.8 122.724 1157.17 122.426 1156.55 122.123C1156.48 122.087 1156.4 122.051 1156.33 122.015C1154.15 120.95 1152.04 119.831 1149.99 118.685C1149.72 118.536 1149.46 118.387 1149.19 118.233C1149.06 118.161 1148.92 118.089 1148.79 118.012C1148.33 117.75 1147.86 117.484 1147.4 117.213C1147.33 117.173 1147.25 117.128 1147.17 117.078C1146.97 116.965 1146.77 116.852 1146.58 116.74C1146.57 116.73 1146.56 116.726 1146.55 116.717C1146.53 116.712 1146.52 116.708 1146.51 116.694C1146.49 116.685 1146.47 116.672 1146.44 116.658C1146.08 116.451 1145.72 116.239 1145.37 116.026C1145.36 116.022 1145.35 116.017 1145.34 116.008C1145.28 115.972 1145.21 115.936 1145.16 115.9C1145.1 115.873 1145.05 115.841 1145 115.81C1144.96 115.783 1144.91 115.76 1144.87 115.733C1144.78 115.679 1144.69 115.625 1144.6 115.566C1144.5 115.512 1144.41 115.458 1144.31 115.399C1144.26 115.372 1144.22 115.341 1144.17 115.309C1144.11 115.273 1144.04 115.241 1143.99 115.201C1143.84 115.115 1143.69 115.025 1143.54 114.934C1143.48 114.894 1143.42 114.858 1143.36 114.822C1143.36 114.817 1143.35 114.808 1143.35 114.803C1143.22 114.655 1143.09 114.51 1142.97 114.361C1143.15 114.47 1143.34 114.582 1143.53 114.695C1145.65 115.963 1147.79 117.209 1149.94 118.409C1157.52 122.611 1165.36 126.235 1173.77 128.153C1175.27 128.491 1176.82 128.771 1178.37 128.92C1181.69 129.24 1185.03 128.96 1187.95 127.417C1193.94 124.24 1196.2 115.643 1192.66 109.848C1190.21 105.845 1186.96 102.682 1183.01 100.759C1183.55 101.012 1184.08 101.287 1184.59 101.594C1186.22 102.556 1187.73 103.765 1189.09 105.141C1189.84 105.909 1190.55 106.725 1191.2 107.587C1191.26 107.66 1191.31 107.732 1191.36 107.804C1191.83 108.427 1192.27 109.068 1192.68 109.727C1193.73 111.401 1194.3 113.368 1194.42 115.354C1194.49 116.487 1194.42 117.629 1194.21 118.748Z" fill="#5AB959"/>
</svg>
